<svg width="300" height="200" viewBox="0 0 300 200" fill="none" xmlns="http://www.w3.org/2000/svg">
<path d="M73.4956 63.6021C61.7653 86.9931 65.4755 116.475 80.1349 138.136C94.7944 159.798 119.19 173.811 144.836 178.916C163.145 182.561 182.839 181.817 199.568 173.536C216.296 165.256 229.449 148.583 230.454 129.944C230.83 122.9 229.338 115.424 224.642 110.166C217.138 101.773 204.329 101.476 193.077 101.825C181.826 102.173 169.026 101.908 161.485 93.5487C155.692 87.1233 154.841 77.8013 151.786 69.7068C146.598 55.9446 134.077 45.1999 119.706 42.1546C117.713 41.7366 115.693 41.4631 113.662 41.3363C97.8537 40.346 82.8223 48.4917 74.5185 62.0028L73.4956 63.6021Z" fill="#F1F4F4"/>
<path d="M207.7 170.305L107.115 157.515L124.634 19.74L227.72 32.8512C228.261 32.9197 228.752 33.2001 229.086 33.6308C229.42 34.0615 229.569 34.6073 229.501 35.148L212.814 166.344C212.739 166.94 212.547 167.515 212.249 168.037C211.951 168.559 211.553 169.017 211.078 169.385C210.603 169.753 210.06 170.024 209.481 170.181C208.901 170.339 208.296 170.381 207.7 170.305Z" fill="#A8B1B2"/>
<path d="M221.073 55.9421L220.221 62.6436L232.692 64.2301L233.545 57.5286L221.073 55.9421Z" fill="#BAD7FF"/>
<path opacity="0.3" d="M221.073 55.9421L220.221 62.6436L232.692 64.2301L233.545 57.5286L221.073 55.9421Z" fill="#677274"/>
<path d="M225.766 36.3936L128.495 24.0192L111.828 155.033L209.099 167.408L225.766 36.3936Z" fill="#E0E0E0"/>
<path d="M221.635 34.2387L124.364 21.8642L107.697 152.878L204.968 165.253L221.635 34.2387Z" fill="#FAFAFA"/>
<path d="M125.877 34.5994L125.819 35.0606L222.749 47.3916L222.807 46.9304L125.877 34.5994Z" fill="#E0E0E0"/>
<path d="M125.658 41.1942L125.599 41.6555L222.529 53.9865L222.587 53.5253L125.658 41.1942Z" fill="#E0E0E0"/>
<path d="M124.831 47.7057L124.773 48.167L221.703 60.498L221.761 60.0368L124.831 47.7057Z" fill="#E0E0E0"/>
<path d="M124.531 54.5711L124.47 55.0313L221.204 67.7338L221.265 67.2735L124.531 54.5711Z" fill="#E0E0E0"/>
<path d="M123.684 61.1097L123.624 61.57L220.358 74.2724L220.418 73.8121L123.684 61.1097Z" fill="#E0E0E0"/>
<path d="M122.837 67.6437L122.777 68.104L219.511 80.8064L219.571 80.3461L122.837 67.6437Z" fill="#E0E0E0"/>
<path d="M121.995 74.1823L121.934 74.6426L218.668 87.3451L218.729 86.8848L121.995 74.1823Z" fill="#E0E0E0"/>
<path d="M120.687 80.2787L120.628 80.74L217.558 93.071L217.617 92.6098L120.687 80.2787Z" fill="#E0E0E0"/>
<path d="M119.861 86.7949L119.802 87.2561L216.732 99.5871L216.791 99.1259L119.861 86.7949Z" fill="#E0E0E0"/>
<path d="M119.463 93.7988L119.402 94.2591L216.136 106.962L216.197 106.501L119.463 93.7988Z" fill="#E0E0E0"/>
<path d="M118.616 100.333L118.555 100.793L215.289 113.496L215.35 113.035L118.616 100.333Z" fill="#E0E0E0"/>
<path d="M117.769 106.871L117.708 107.332L214.443 120.034L214.503 119.574L117.769 106.871Z" fill="#E0E0E0"/>
<path d="M116.926 113.415L116.866 113.875L213.6 126.577L213.66 126.117L116.926 113.415Z" fill="#E0E0E0"/>
<path d="M115.237 126.488L115.177 126.948L211.911 139.651L211.971 139.19L115.237 126.488Z" fill="#E0E0E0"/>
<path d="M114.395 133.027L114.334 133.487L211.068 146.189L211.129 145.729L114.395 133.027Z" fill="#E0E0E0"/>
<path d="M113.548 139.561L113.488 140.021L210.222 152.723L210.282 152.263L113.548 139.561Z" fill="#E0E0E0"/>
<path d="M112.402 145.431L112.344 145.892L209.273 158.223L209.332 157.762L112.402 145.431Z" fill="#E0E0E0"/>
<path d="M139.611 24.4955L122.91 155.046L123.371 155.105L140.072 24.5545L139.611 24.4955Z" fill="#BAD7FF"/>
<path d="M132.835 29.9454C132.785 30.3365 132.621 30.7041 132.362 31.0016C132.103 31.2991 131.762 31.5133 131.381 31.617C131.001 31.7207 130.598 31.7093 130.224 31.5843C129.85 31.4592 129.522 31.2261 129.28 30.9145C129.039 30.6028 128.895 30.2265 128.867 29.8331C128.839 29.4398 128.929 29.047 129.124 28.7045C129.32 28.362 129.612 28.085 129.965 27.9087C130.318 27.7323 130.715 27.6644 131.106 27.7137C131.366 27.7464 131.617 27.8301 131.845 27.96C132.073 28.09 132.273 28.2635 132.433 28.4708C132.594 28.6781 132.712 28.915 132.781 29.1681C132.85 29.4211 132.869 29.6852 132.835 29.9454Z" fill="#838E91"/>
<path d="M130.985 44.4793C130.936 44.8709 130.772 45.2391 130.513 45.5373C130.254 45.8355 129.913 46.0503 129.532 46.1544C129.152 46.2586 128.748 46.2474 128.374 46.1224C128 45.9973 127.671 45.764 127.429 45.4519C127.187 45.1398 127.044 44.7631 127.016 44.3693C126.989 43.9755 127.079 43.5825 127.275 43.2399C127.471 42.8973 127.764 42.6206 128.118 42.4448C128.471 42.2689 128.869 42.2019 129.26 42.2522C129.783 42.3206 130.258 42.5932 130.581 43.0104C130.905 43.4275 131.05 43.9555 130.985 44.4793Z" fill="#838E91"/>
<path d="M129.135 59.0179C129.084 59.4077 128.918 59.7738 128.66 60.0699C128.401 60.366 128.06 60.5788 127.681 60.6814C127.301 60.7841 126.9 60.772 126.527 60.6467C126.155 60.5214 125.827 60.2886 125.587 59.9775C125.346 59.6664 125.204 59.291 125.176 58.8988C125.149 58.5065 125.238 58.115 125.433 57.7736C125.628 57.4322 125.92 57.1562 126.272 56.9804C126.624 56.8047 127.02 56.7371 127.41 56.7862C127.67 56.8189 127.921 56.9026 128.148 57.0326C128.376 57.1626 128.576 57.3362 128.736 57.5436C128.896 57.751 129.014 57.988 129.082 58.241C129.151 58.4939 129.168 58.758 129.135 59.0179Z" fill="#838E91"/>
<path d="M127.289 73.5518C127.24 73.9433 127.075 74.3114 126.817 74.6096C126.559 74.9078 126.218 75.1227 125.837 75.2271C125.457 75.3315 125.054 75.3208 124.68 75.1961C124.305 75.0715 123.976 74.8387 123.734 74.5271C123.492 74.2155 123.348 73.8391 123.32 73.4455C123.292 73.052 123.381 72.6589 123.577 72.3161C123.772 71.9733 124.065 71.6962 124.417 71.5197C124.77 71.3432 125.168 71.2754 125.559 71.3248C126.083 71.3921 126.559 71.6641 126.883 72.0814C127.207 72.4987 127.353 73.0274 127.289 73.5518Z" fill="#838E91"/>
<path d="M125.438 88.0903C125.389 88.482 125.225 88.8502 124.966 89.1484C124.707 89.4466 124.366 89.6614 123.985 89.7655C123.605 89.8697 123.202 89.8585 122.827 89.7334C122.453 89.6084 122.124 89.375 121.882 89.063C121.641 88.7509 121.497 88.3742 121.469 87.9804C121.442 87.5866 121.532 87.1936 121.728 86.851C121.924 86.5084 122.217 86.2317 122.571 86.0558C122.924 85.88 123.322 85.813 123.713 85.8633C123.973 85.896 124.223 85.9796 124.451 86.1093C124.678 86.239 124.877 86.4122 125.038 86.6191C125.198 86.8259 125.316 87.0624 125.384 87.3148C125.453 87.5673 125.471 87.8308 125.438 88.0903Z" fill="#838E91"/>
<path d="M123.588 102.629C123.537 103.019 123.372 103.385 123.113 103.681C122.854 103.977 122.514 104.19 122.134 104.293C121.755 104.395 121.353 104.383 120.981 104.258C120.608 104.133 120.281 103.9 120.04 103.589C119.8 103.277 119.657 102.902 119.63 102.51C119.602 102.118 119.692 101.726 119.887 101.385C120.082 101.043 120.374 100.767 120.725 100.592C121.077 100.416 121.473 100.348 121.863 100.397C122.123 100.43 122.374 100.514 122.602 100.644C122.829 100.774 123.029 100.947 123.189 101.155C123.349 101.362 123.467 101.599 123.536 101.852C123.604 102.105 123.622 102.369 123.588 102.629Z" fill="#838E91"/>
<path d="M121.742 117.163C121.693 117.555 121.528 117.923 121.269 118.221C121.01 118.519 120.669 118.734 120.288 118.838C119.907 118.942 119.504 118.93 119.129 118.805C118.755 118.679 118.426 118.445 118.185 118.133C117.943 117.82 117.8 117.443 117.773 117.049C117.746 116.655 117.837 116.262 118.034 115.92C118.231 115.577 118.524 115.301 118.878 115.126C119.232 114.951 119.63 114.885 120.022 114.936C120.545 115.004 121.019 115.277 121.342 115.694C121.664 116.112 121.808 116.64 121.742 117.163Z" fill="#838E91"/>
<path d="M119.892 131.701C119.842 132.093 119.677 132.46 119.418 132.758C119.158 133.055 118.817 133.269 118.436 133.373C118.056 133.476 117.653 133.465 117.279 133.339C116.905 133.214 116.576 132.98 116.335 132.668C116.094 132.356 115.951 131.979 115.923 131.586C115.896 131.192 115.986 130.799 116.182 130.457C116.379 130.115 116.672 129.838 117.025 129.662C117.378 129.487 117.775 129.42 118.167 129.47C118.427 129.502 118.678 129.586 118.905 129.716C119.133 129.846 119.333 130.02 119.493 130.227C119.653 130.435 119.771 130.672 119.839 130.925C119.908 131.178 119.926 131.442 119.892 131.701Z" fill="#838E91"/>
<path d="M118.046 146.235C117.997 146.627 117.833 146.995 117.574 147.293C117.316 147.591 116.975 147.806 116.595 147.911C116.214 148.015 115.811 148.004 115.437 147.88C115.063 147.755 114.734 147.522 114.492 147.211C114.25 146.899 114.105 146.523 114.077 146.129C114.049 145.736 114.139 145.342 114.334 145C114.529 144.657 114.822 144.38 115.175 144.203C115.528 144.027 115.925 143.959 116.316 144.008C116.84 144.076 117.317 144.348 117.641 144.765C117.965 145.182 118.11 145.711 118.046 146.235Z" fill="#838E91"/>
<path d="M122.96 35.7152C122.96 35.7385 122.881 35.7385 122.742 35.7152C122.537 35.6819 122.336 35.629 122.142 35.5571C121.831 35.4347 121.535 35.2788 121.259 35.0922C120.89 34.8404 120.561 34.5348 120.282 34.1856C119.951 33.7554 119.693 33.273 119.52 32.7582C119.323 32.169 119.221 31.5522 119.217 30.931C119.191 30.2239 119.335 29.5208 119.636 28.8807C119.99 28.2067 120.508 27.6327 121.142 27.2115C121.764 26.7932 122.468 26.5126 123.207 26.3886C123.885 26.277 124.578 26.277 125.257 26.3886C126.383 26.5865 127.458 27.0121 128.414 27.6393C129.047 28.0449 129.639 28.5121 130.181 29.0341C130.557 29.406 130.739 29.6385 130.706 29.6757C130.673 29.7129 130.427 29.5548 129.999 29.2526C129.401 28.8258 128.78 28.4316 128.14 28.0717C127.215 27.5467 126.202 27.1983 125.15 27.0442C124.543 26.9616 123.926 26.9741 123.323 27.0813C122.684 27.1966 122.076 27.4436 121.537 27.8066C121.004 28.1616 120.564 28.6401 120.254 29.2015C119.999 29.7402 119.87 30.3302 119.878 30.9264C119.868 31.4807 119.939 32.0334 120.087 32.5676C120.218 33.0316 120.42 33.4723 120.687 33.8741C120.915 34.2038 121.187 34.501 121.496 34.7575C121.732 34.9545 121.986 35.1303 122.253 35.2828C122.472 35.413 122.658 35.4828 122.779 35.5571C122.9 35.6315 122.969 35.692 122.96 35.7152Z" fill="#BAD7FF"/>
<path d="M121.114 50.2631C121.114 50.291 121.031 50.2631 120.891 50.2631C120.687 50.2272 120.486 50.1727 120.291 50.1004C119.981 49.9807 119.686 49.8246 119.413 49.6354C119.041 49.3892 118.711 49.0846 118.436 48.7334C118.101 48.3055 117.843 47.8225 117.674 47.3061C117.477 46.7152 117.375 46.097 117.372 45.4742C117.342 44.7674 117.484 44.0638 117.785 43.4239C118.142 42.7532 118.66 42.1814 119.292 41.7594C119.914 41.3388 120.62 41.0566 121.361 40.9318C122.04 40.8201 122.732 40.8201 123.411 40.9318C124.537 41.1277 125.61 41.5534 126.563 42.1825C127.197 42.5881 127.789 43.0553 128.33 43.5773C128.711 43.9492 128.893 44.1817 128.86 44.2189C128.828 44.2561 128.581 44.0934 128.149 43.7958C127.552 43.367 126.931 42.9728 126.289 42.6149C125.365 42.089 124.351 41.739 123.3 41.5827C122.691 41.5001 122.073 41.5127 121.468 41.6199C120.834 41.7411 120.232 41.9928 119.701 42.3592C119.167 42.7141 118.727 43.1926 118.418 43.754C118.161 44.2923 118.032 44.8826 118.041 45.4789C118.028 46.0346 118.097 46.5891 118.246 47.1248C118.376 47.5898 118.58 48.0309 118.85 48.4312C119.074 48.7615 119.345 49.0574 119.654 49.31C119.891 49.5076 120.144 49.6834 120.412 49.8354C120.631 49.9702 120.821 50.0399 120.938 50.1143C121.054 50.1887 121.119 50.2259 121.114 50.2631Z" fill="#BAD7FF"/>
<path d="M119.264 64.7877C119.264 64.7877 119.18 64.7877 119.041 64.7877C118.838 64.7538 118.639 64.7008 118.446 64.6296C117.714 64.3535 117.072 63.8843 116.586 63.272C116.252 62.8417 115.994 62.3574 115.823 61.84C115.627 61.2507 115.525 60.634 115.521 60.0128C115.495 59.3057 115.638 58.6026 115.94 57.9624C116.291 57.2892 116.808 56.7165 117.441 56.298C118.065 55.8789 118.77 55.5968 119.51 55.4704C120.189 55.3587 120.882 55.3587 121.561 55.4704C122.688 55.6677 123.763 56.095 124.718 56.7257C125.35 57.1311 125.94 57.5984 126.48 58.1205C126.861 58.4878 127.042 58.7203 127.01 58.7575C126.977 58.7947 126.731 58.6366 126.303 58.3344C125.704 57.9105 125.083 57.5179 124.443 57.1581C123.52 56.6295 122.506 56.2794 121.454 56.1259C120.846 56.0433 120.23 56.0558 119.627 56.1631C118.988 56.2784 118.38 56.5254 117.841 56.8884C117.307 57.2434 116.867 57.7219 116.558 58.2833C116.303 58.822 116.174 59.412 116.181 60.0082C116.167 60.5627 116.238 61.1161 116.391 61.6494C116.519 62.1142 116.722 62.5552 116.99 62.9559C117.217 63.2853 117.488 63.5825 117.795 63.8392C118.033 64.0341 118.286 64.2098 118.553 64.3646C118.776 64.4948 118.962 64.5692 119.078 64.6436C119.194 64.718 119.273 64.7645 119.264 64.7877Z" fill="#BAD7FF"/>
<path d="M117.414 79.3263C117.414 79.3496 117.335 79.3496 117.195 79.3263C116.991 79.291 116.79 79.2365 116.595 79.1636C116.284 79.0458 115.989 78.8896 115.717 78.6986C115.344 78.4514 115.013 78.147 114.736 77.7967C114.404 77.3665 114.146 76.8841 113.973 76.3693C113.781 75.7774 113.679 75.1598 113.671 74.5375C113.645 73.8304 113.789 73.1275 114.089 72.4871C114.446 71.8164 114.964 71.2446 115.596 70.8226C116.216 70.4023 116.921 70.1215 117.66 69.9997C118.339 69.888 119.032 69.888 119.71 69.9997C120.838 70.1947 121.912 70.6205 122.867 71.2504C123.501 71.656 124.093 72.1232 124.634 72.6452C125.011 73.0171 125.192 73.2496 125.164 73.2868C125.136 73.324 124.881 73.1659 124.453 72.8637C123.855 72.436 123.234 72.0418 122.593 71.6828C121.668 71.1589 120.655 70.8091 119.603 70.6506C118.995 70.5703 118.377 70.5829 117.772 70.6878C117.133 70.8067 116.525 71.0552 115.986 71.4177C115.46 71.7445 115.029 72.2047 114.737 72.7518C114.446 73.2989 114.304 73.9133 114.326 74.5328C114.317 75.0886 114.388 75.6429 114.536 76.1787C114.667 76.6426 114.869 77.0834 115.135 77.4852C115.363 77.8145 115.635 78.1103 115.944 78.3639C116.181 78.5615 116.434 78.7373 116.702 78.8893C116.921 79.0241 117.107 79.0938 117.228 79.1682C117.349 79.2426 117.423 79.2984 117.414 79.3263Z" fill="#BAD7FF"/>
<path d="M115.568 93.8602C115.568 93.8602 115.484 93.8602 115.345 93.8602C115.141 93.8221 114.94 93.7677 114.745 93.6975C114.435 93.5759 114.141 93.4199 113.866 93.2326C113.494 92.9864 113.165 92.6818 112.89 92.3306C112.555 91.9009 112.297 91.4164 112.127 90.8986C111.931 90.3093 111.829 89.6926 111.825 89.0714C111.799 88.3648 111.941 87.6622 112.239 87.021C112.595 86.3495 113.112 85.7773 113.745 85.3565C114.368 84.9367 115.074 84.6545 115.814 84.5289C116.493 84.4172 117.186 84.4172 117.865 84.5289C118.99 84.7248 120.063 85.1506 121.017 85.7796C121.65 86.1852 122.242 86.6524 122.784 87.1744C123.165 87.5464 123.346 87.7789 123.314 87.8114C123.281 87.8439 123.035 87.6905 122.607 87.393C122.009 86.9656 121.388 86.5713 120.747 86.212C119.823 85.6861 118.809 85.3362 117.758 85.1799C117.15 85.0972 116.534 85.1097 115.93 85.2171C115.291 85.3323 114.683 85.5793 114.145 85.9424C113.611 86.2973 113.171 86.7758 112.862 87.3372C112.604 87.8751 112.475 88.4657 112.485 89.0621C112.472 89.6178 112.541 90.1723 112.69 90.708C112.823 91.1704 113.027 91.6096 113.294 92.0098C113.519 92.3412 113.79 92.6387 114.099 92.8932C114.336 93.0891 114.59 93.2648 114.856 93.4185C115.075 93.5487 115.266 93.6231 115.382 93.6975C115.498 93.7719 115.572 93.837 115.568 93.8602Z" fill="#BAD7FF"/>
<path d="M113.717 108.38C113.717 108.403 113.638 108.403 113.499 108.38C113.295 108.345 113.094 108.292 112.899 108.222C112.588 108.101 112.291 107.945 112.016 107.757C111.646 107.508 111.316 107.204 111.039 106.855C110.708 106.425 110.45 105.943 110.277 105.428C110.08 104.839 109.978 104.222 109.975 103.601C109.948 102.894 110.092 102.19 110.393 101.55C110.747 100.876 111.265 100.302 111.899 99.8812C112.526 99.4672 113.235 99.1943 113.978 99.0815C114.657 98.9698 115.349 98.9698 116.028 99.0815C117.154 99.2794 118.229 99.705 119.185 100.332C119.818 100.738 120.41 101.205 120.952 101.727C121.328 102.099 121.51 102.331 121.477 102.369C121.445 102.406 121.198 102.248 120.77 101.945C120.172 101.519 119.551 101.124 118.911 100.765C117.986 100.24 116.973 99.8912 115.921 99.737C115.314 99.6528 114.698 99.6638 114.094 99.7696C113.455 99.8885 112.848 100.137 112.309 100.5C111.78 100.826 111.348 101.286 111.056 101.835C110.764 102.383 110.624 102.999 110.649 103.619C110.637 104.174 110.707 104.727 110.858 105.26C110.987 105.725 111.189 106.166 111.458 106.567C111.686 106.897 111.958 107.194 112.267 107.45C112.501 107.646 112.754 107.821 113.02 107.971C113.243 108.106 113.429 108.176 113.55 108.25C113.671 108.324 113.727 108.38 113.717 108.38Z" fill="#BAD7FF"/>
<path d="M111.871 122.933C111.871 122.961 111.788 122.956 111.648 122.933C111.444 122.895 111.244 122.84 111.049 122.77C110.738 122.65 110.443 122.494 110.17 122.305C109.797 122.056 109.466 121.75 109.189 121.398C108.857 120.969 108.601 120.486 108.431 119.971C108.235 119.38 108.133 118.762 108.129 118.139C108.099 117.432 108.241 116.729 108.542 116.089C108.9 115.418 109.417 114.846 110.049 114.424C110.671 114.004 111.377 113.722 112.118 113.597C112.797 113.485 113.489 113.485 114.168 113.597C115.294 113.793 116.367 114.218 117.321 114.847C117.954 115.253 118.546 115.72 119.087 116.242C119.469 116.614 119.65 116.847 119.617 116.884C119.585 116.921 119.334 116.758 118.906 116.461C118.309 116.032 117.688 115.638 117.046 115.28C116.122 114.754 115.108 114.404 114.057 114.248C113.448 114.165 112.83 114.178 112.225 114.285C111.587 114.4 110.981 114.647 110.444 115.01C109.91 115.365 109.47 115.844 109.161 116.405C108.904 116.943 108.775 117.534 108.784 118.13C108.771 118.686 108.84 119.24 108.989 119.776C109.119 120.241 109.323 120.682 109.593 121.082C109.818 121.413 110.088 121.708 110.398 121.961C110.644 122.168 110.909 122.353 111.188 122.514C111.407 122.644 111.597 122.719 111.713 122.793C111.83 122.868 111.876 122.909 111.871 122.933Z" fill="#BAD7FF"/>
<path d="M110.021 137.471C110.021 137.495 109.937 137.495 109.798 137.471C109.595 137.437 109.396 137.384 109.203 137.313C108.892 137.191 108.596 137.035 108.319 136.848C107.949 136.598 107.62 136.292 107.343 135.942C107.008 135.514 106.75 135.031 106.58 134.514C106.384 133.925 106.282 133.308 106.278 132.687C106.252 131.98 106.395 131.277 106.697 130.637C107.049 129.963 107.566 129.389 108.198 128.968C108.822 128.55 109.527 128.269 110.267 128.145C110.946 128.033 111.639 128.033 112.318 128.145C113.444 128.343 114.518 128.768 115.475 129.395C116.107 129.801 116.697 130.268 117.237 130.79C117.618 131.162 117.799 131.395 117.767 131.432C117.734 131.469 117.488 131.311 117.06 131.009C116.461 130.583 115.84 130.189 115.2 129.828C114.276 129.303 113.262 128.954 112.211 128.8C111.604 128.718 110.987 128.73 110.384 128.837C109.745 128.953 109.137 129.2 108.598 129.563C108.065 129.918 107.624 130.396 107.315 130.958C107.06 131.496 106.931 132.086 106.938 132.682C106.924 133.237 106.995 133.79 107.148 134.324C107.276 134.788 107.479 135.23 107.747 135.63C107.974 135.96 108.245 136.257 108.552 136.514C108.79 136.708 109.044 136.884 109.31 137.039C109.528 137.169 109.719 137.239 109.835 137.313C109.951 137.388 110.03 137.448 110.021 137.471Z" fill="#BAD7FF"/>
<path d="M108.171 152.005C108.171 152.033 108.092 152.028 107.952 152.005C107.747 151.97 107.547 151.915 107.352 151.843C107.04 151.724 106.743 151.568 106.469 151.378C106.099 151.129 105.77 150.825 105.493 150.476C105.161 150.045 104.903 149.563 104.73 149.048C104.538 148.456 104.436 147.839 104.428 147.216C104.402 146.509 104.545 145.806 104.846 145.166C105.203 144.495 105.721 143.924 106.353 143.502C106.974 143.082 107.678 142.8 108.417 142.674C109.096 142.562 109.788 142.562 110.467 142.674C111.595 142.869 112.669 143.295 113.624 143.925C114.258 144.33 114.849 144.797 115.391 145.319C115.768 145.691 115.949 145.924 115.916 145.961C115.884 145.998 115.637 145.836 115.21 145.538C114.612 145.11 113.991 144.716 113.35 144.357C112.424 143.831 111.409 143.481 110.356 143.325C109.748 143.242 109.132 143.255 108.529 143.362C107.89 143.477 107.282 143.724 106.743 144.087C106.21 144.441 105.771 144.92 105.465 145.482C105.207 146.02 105.076 146.61 105.083 147.207C105.074 147.763 105.145 148.317 105.293 148.853C105.424 149.317 105.626 149.758 105.892 150.159C106.12 150.489 106.392 150.785 106.701 151.038C106.938 151.236 107.191 151.412 107.459 151.564C107.678 151.698 107.864 151.768 107.985 151.843C108.105 151.917 108.18 151.982 108.171 152.005Z" fill="#BAD7FF"/>
<g opacity="0.2">
<path d="M122.96 35.7152C122.96 35.7385 122.881 35.7385 122.742 35.7152C122.537 35.6819 122.336 35.629 122.142 35.5571C121.831 35.4347 121.535 35.2788 121.259 35.0922C120.89 34.8404 120.561 34.5348 120.282 34.1856C119.951 33.7554 119.693 33.273 119.52 32.7582C119.323 32.169 119.221 31.5522 119.217 30.931C119.191 30.2239 119.335 29.5208 119.636 28.8807C119.99 28.2067 120.508 27.6327 121.142 27.2115C121.764 26.7932 122.468 26.5126 123.207 26.3886C123.885 26.277 124.578 26.277 125.257 26.3886C126.383 26.5865 127.458 27.0121 128.414 27.6393C129.047 28.0449 129.639 28.5121 130.181 29.0341C130.557 29.406 130.739 29.6385 130.706 29.6757C130.673 29.7129 130.427 29.5548 129.999 29.2526C129.401 28.8258 128.78 28.4316 128.14 28.0717C127.215 27.5467 126.202 27.1983 125.15 27.0442C124.543 26.9616 123.926 26.9741 123.323 27.0813C122.684 27.1966 122.076 27.4436 121.537 27.8066C121.004 28.1616 120.564 28.6401 120.254 29.2015C119.999 29.7402 119.87 30.3302 119.878 30.9264C119.868 31.4807 119.939 32.0334 120.087 32.5676C120.218 33.0316 120.42 33.4723 120.687 33.8741C120.915 34.2038 121.187 34.501 121.496 34.7575C121.732 34.9545 121.986 35.1303 122.253 35.2828C122.472 35.413 122.658 35.4828 122.779 35.5571C122.9 35.6315 122.969 35.692 122.96 35.7152Z" fill="#677274"/>
<path d="M121.114 50.2631C121.114 50.291 121.031 50.2631 120.891 50.2631C120.687 50.2272 120.486 50.1728 120.291 50.1004C119.981 49.9807 119.686 49.8246 119.413 49.6355C119.041 49.3892 118.711 49.0847 118.436 48.7335C118.101 48.3055 117.843 47.8225 117.674 47.3061C117.477 46.7152 117.375 46.097 117.372 45.4743C117.342 44.7674 117.484 44.0638 117.785 43.4239C118.142 42.7533 118.66 42.1814 119.292 41.7594C119.914 41.3388 120.62 41.0566 121.361 40.9318C122.04 40.8201 122.732 40.8201 123.411 40.9318C124.537 41.1277 125.61 41.5535 126.563 42.1825C127.197 42.5881 127.789 43.0553 128.33 43.5773C128.711 43.9493 128.893 44.1817 128.86 44.2189C128.828 44.2561 128.581 44.0934 128.149 43.7958C127.552 43.3671 126.931 42.9728 126.289 42.6149C125.365 42.089 124.351 41.7391 123.3 41.5828C122.691 41.5001 122.073 41.5127 121.468 41.6199C120.834 41.7411 120.232 41.9928 119.701 42.3592C119.167 42.7142 118.727 43.1926 118.418 43.754C118.161 44.2923 118.032 44.8826 118.041 45.4789C118.028 46.0346 118.097 46.5892 118.246 47.1248C118.376 47.5898 118.58 48.0309 118.85 48.4313C119.074 48.7615 119.345 49.0575 119.654 49.31C119.891 49.5076 120.144 49.6834 120.412 49.8354C120.631 49.9702 120.821 50.04 120.938 50.1143C121.054 50.1887 121.119 50.2259 121.114 50.2631Z" fill="#677274"/>
<path d="M119.264 64.7877C119.264 64.7877 119.18 64.7877 119.041 64.7877C118.838 64.7538 118.639 64.7008 118.446 64.6296C117.714 64.3535 117.072 63.8843 116.586 63.272C116.252 62.8417 115.994 62.3574 115.823 61.84C115.627 61.2507 115.525 60.634 115.521 60.0128C115.495 59.3057 115.638 58.6026 115.94 57.9624C116.291 57.2892 116.808 56.7165 117.441 56.298C118.065 55.8789 118.77 55.5968 119.51 55.4704C120.189 55.3587 120.882 55.3587 121.561 55.4704C122.688 55.6677 123.763 56.095 124.718 56.7257C125.35 57.1311 125.94 57.5984 126.48 58.1205C126.861 58.4878 127.042 58.7203 127.01 58.7575C126.977 58.7947 126.731 58.6366 126.303 58.3344C125.704 57.9105 125.083 57.5179 124.443 57.1581C123.52 56.6295 122.506 56.2794 121.454 56.1259C120.846 56.0433 120.23 56.0558 119.627 56.1631C118.988 56.2784 118.38 56.5254 117.841 56.8884C117.307 57.2434 116.867 57.7219 116.558 58.2833C116.303 58.822 116.174 59.412 116.181 60.0082C116.167 60.5627 116.238 61.1161 116.391 61.6494C116.519 62.1142 116.722 62.5552 116.99 62.9559C117.217 63.2853 117.488 63.5825 117.795 63.8392C118.033 64.0341 118.286 64.2098 118.553 64.3646C118.776 64.4948 118.962 64.5692 119.078 64.6436C119.194 64.718 119.273 64.7645 119.264 64.7877Z" fill="#677274"/>
<path d="M117.414 79.3263C117.414 79.3496 117.335 79.3496 117.195 79.3263C116.991 79.291 116.79 79.2365 116.595 79.1636C116.284 79.0458 115.989 78.8896 115.717 78.6986C115.344 78.4514 115.013 78.147 114.736 77.7967C114.404 77.3665 114.146 76.8841 113.973 76.3693C113.781 75.7774 113.679 75.1598 113.671 74.5375C113.645 73.8304 113.789 73.1275 114.089 72.4871C114.446 71.8164 114.964 71.2446 115.596 70.8226C116.216 70.4023 116.921 70.1215 117.66 69.9997C118.339 69.888 119.032 69.888 119.71 69.9997C120.838 70.1947 121.912 70.6205 122.867 71.2504C123.501 71.656 124.093 72.1232 124.634 72.6452C125.011 73.0171 125.192 73.2496 125.164 73.2868C125.136 73.324 124.881 73.1659 124.453 72.8637C123.855 72.436 123.234 72.0418 122.593 71.6828C121.668 71.1589 120.655 70.8091 119.603 70.6506C118.995 70.5703 118.377 70.5829 117.772 70.6878C117.133 70.8067 116.525 71.0552 115.986 71.4177C115.46 71.7445 115.029 72.2047 114.737 72.7518C114.446 73.2989 114.304 73.9133 114.326 74.5328C114.317 75.0886 114.388 75.6429 114.536 76.1787C114.667 76.6426 114.869 77.0834 115.135 77.4852C115.363 77.8145 115.635 78.1103 115.944 78.3639C116.181 78.5615 116.434 78.7373 116.702 78.8893C116.921 79.0241 117.107 79.0938 117.228 79.1682C117.349 79.2426 117.423 79.2984 117.414 79.3263Z" fill="#677274"/>
<path d="M115.568 93.8602C115.568 93.8602 115.484 93.8602 115.345 93.8602C115.141 93.8221 114.94 93.7677 114.745 93.6975C114.435 93.5759 114.141 93.4199 113.866 93.2326C113.494 92.9864 113.165 92.6818 112.89 92.3306C112.555 91.9009 112.297 91.4164 112.127 90.8986C111.931 90.3093 111.829 89.6926 111.825 89.0714C111.799 88.3648 111.941 87.6622 112.239 87.021C112.595 86.3495 113.112 85.7773 113.745 85.3565C114.368 84.9367 115.074 84.6545 115.814 84.5289C116.493 84.4172 117.186 84.4172 117.865 84.5289C118.99 84.7248 120.063 85.1506 121.017 85.7796C121.65 86.1852 122.242 86.6524 122.784 87.1744C123.165 87.5464 123.346 87.7789 123.314 87.8114C123.281 87.8439 123.035 87.6905 122.607 87.393C122.009 86.9656 121.388 86.5713 120.747 86.212C119.823 85.6861 118.809 85.3362 117.758 85.1799C117.15 85.0972 116.534 85.1097 115.93 85.2171C115.291 85.3323 114.683 85.5793 114.145 85.9424C113.611 86.2973 113.171 86.7758 112.862 87.3372C112.604 87.8751 112.475 88.4657 112.485 89.0621C112.472 89.6178 112.541 90.1723 112.69 90.708C112.823 91.1704 113.027 91.6096 113.294 92.0098C113.519 92.3412 113.79 92.6387 114.099 92.8932C114.336 93.0891 114.59 93.2648 114.856 93.4185C115.075 93.5487 115.266 93.6231 115.382 93.6975C115.498 93.7719 115.572 93.837 115.568 93.8602Z" fill="#677274"/>
<path d="M113.717 108.38C113.717 108.403 113.638 108.403 113.499 108.38C113.295 108.345 113.094 108.292 112.899 108.222C112.588 108.101 112.291 107.945 112.016 107.757C111.646 107.509 111.316 107.204 111.039 106.855C110.708 106.425 110.45 105.943 110.277 105.428C110.08 104.839 109.978 104.222 109.975 103.601C109.948 102.894 110.092 102.19 110.393 101.55C110.747 100.876 111.265 100.302 111.899 99.8812C112.526 99.4672 113.235 99.1944 113.978 99.0815C114.657 98.9699 115.349 98.9699 116.028 99.0815C117.154 99.2794 118.229 99.705 119.185 100.332C119.818 100.738 120.41 101.205 120.952 101.727C121.328 102.099 121.51 102.331 121.477 102.369C121.445 102.406 121.198 102.248 120.77 101.946C120.172 101.519 119.551 101.125 118.911 100.765C117.986 100.24 116.973 99.8912 115.921 99.7371C115.314 99.6529 114.698 99.6638 114.094 99.7696C113.455 99.8886 112.848 100.137 112.309 100.5C111.78 100.826 111.348 101.286 111.056 101.835C110.764 102.383 110.624 102.999 110.649 103.619C110.637 104.174 110.707 104.727 110.858 105.261C110.987 105.725 111.189 106.166 111.458 106.567C111.686 106.897 111.958 107.194 112.267 107.45C112.501 107.646 112.754 107.821 113.02 107.971C113.243 108.106 113.429 108.176 113.55 108.25C113.671 108.324 113.727 108.38 113.717 108.38Z" fill="#677274"/>
<path d="M111.871 122.933C111.871 122.961 111.788 122.956 111.648 122.933C111.444 122.895 111.244 122.84 111.049 122.77C110.738 122.65 110.443 122.494 110.17 122.305C109.797 122.056 109.466 121.75 109.189 121.398C108.857 120.969 108.601 120.486 108.431 119.971C108.235 119.38 108.133 118.762 108.129 118.139C108.099 117.432 108.241 116.729 108.542 116.089C108.9 115.418 109.417 114.846 110.049 114.424C110.671 114.004 111.377 113.722 112.118 113.597C112.797 113.485 113.489 113.485 114.168 113.597C115.294 113.793 116.367 114.218 117.321 114.847C117.954 115.253 118.546 115.72 119.087 116.242C119.469 116.614 119.65 116.847 119.617 116.884C119.585 116.921 119.334 116.758 118.906 116.461C118.309 116.032 117.688 115.638 117.046 115.28C116.122 114.754 115.108 114.404 114.057 114.248C113.448 114.165 112.83 114.178 112.225 114.285C111.587 114.4 110.981 114.647 110.444 115.01C109.91 115.365 109.47 115.844 109.161 116.405C108.904 116.943 108.775 117.534 108.784 118.13C108.771 118.686 108.84 119.24 108.989 119.776C109.119 120.241 109.323 120.682 109.593 121.082C109.818 121.413 110.088 121.708 110.398 121.961C110.644 122.168 110.909 122.353 111.188 122.514C111.407 122.644 111.597 122.719 111.713 122.793C111.83 122.868 111.876 122.909 111.871 122.933Z" fill="#677274"/>
<path d="M110.021 137.471C110.021 137.495 109.937 137.495 109.798 137.471C109.595 137.437 109.396 137.384 109.203 137.313C108.892 137.191 108.596 137.035 108.319 136.848C107.949 136.598 107.62 136.292 107.343 135.942C107.008 135.514 106.75 135.031 106.58 134.514C106.384 133.925 106.282 133.308 106.278 132.687C106.252 131.98 106.395 131.277 106.697 130.637C107.049 129.963 107.566 129.389 108.198 128.968C108.822 128.55 109.527 128.269 110.267 128.145C110.946 128.033 111.639 128.033 112.318 128.145C113.444 128.343 114.518 128.768 115.475 129.395C116.107 129.801 116.697 130.268 117.237 130.79C117.618 131.162 117.799 131.395 117.767 131.432C117.734 131.469 117.488 131.311 117.06 131.009C116.461 130.583 115.84 130.189 115.2 129.828C114.276 129.303 113.262 128.954 112.211 128.8C111.604 128.718 110.987 128.73 110.384 128.837C109.745 128.953 109.137 129.2 108.598 129.563C108.065 129.918 107.624 130.396 107.315 130.958C107.06 131.496 106.931 132.086 106.938 132.682C106.924 133.237 106.995 133.79 107.148 134.324C107.276 134.788 107.479 135.23 107.747 135.63C107.974 135.96 108.245 136.257 108.552 136.514C108.79 136.708 109.044 136.884 109.31 137.039C109.528 137.169 109.719 137.239 109.835 137.313C109.951 137.388 110.03 137.448 110.021 137.471Z" fill="#677274"/>
<path d="M108.171 152.005C108.171 152.033 108.092 152.028 107.952 152.005C107.747 151.97 107.547 151.915 107.352 151.843C107.04 151.724 106.743 151.568 106.469 151.378C106.099 151.129 105.77 150.825 105.493 150.476C105.161 150.045 104.903 149.563 104.73 149.048C104.538 148.456 104.436 147.839 104.428 147.216C104.402 146.509 104.545 145.806 104.846 145.166C105.203 144.495 105.721 143.924 106.353 143.502C106.974 143.082 107.678 142.8 108.417 142.674C109.096 142.562 109.788 142.562 110.467 142.674C111.595 142.869 112.669 143.295 113.624 143.925C114.258 144.33 114.849 144.797 115.391 145.319C115.768 145.691 115.949 145.924 115.916 145.961C115.884 145.998 115.637 145.836 115.21 145.538C114.612 145.11 113.991 144.716 113.35 144.357C112.424 143.831 111.409 143.481 110.356 143.325C109.748 143.242 109.132 143.255 108.529 143.362C107.89 143.477 107.282 143.724 106.743 144.087C106.21 144.441 105.771 144.92 105.465 145.482C105.207 146.02 105.076 146.61 105.083 147.207C105.074 147.763 105.145 148.317 105.293 148.853C105.424 149.317 105.626 149.758 105.892 150.159C106.12 150.489 106.392 150.785 106.701 151.038C106.938 151.236 107.191 151.412 107.459 151.564C107.678 151.698 107.864 151.768 107.985 151.843C108.105 151.917 108.18 151.982 108.171 152.005Z" fill="#677274"/>
</g>
<path d="M221.722 50.8446L220.87 57.5461L232.091 58.9737L232.944 52.2722L221.722 50.8446Z" fill="#BAD7FF"/>
<path d="M212.902 55.8935C212.84 55.8997 212.778 55.8997 212.716 55.8935L212.172 55.8424L210.089 55.5913L202.423 54.6149L177.153 51.2999L169.951 50.3421C167.627 50.0353 165.381 49.7191 163.247 49.4588C161.231 49.1755 159.187 49.1537 157.166 49.3937C155.283 49.6587 153.502 50.0632 151.847 49.8586C151.064 49.7702 150.306 49.5352 149.61 49.1659C148.955 48.8218 148.383 48.4266 147.834 48.0872C147.334 47.7583 146.803 47.478 146.249 47.2503C145.779 47.0776 145.284 46.9849 144.784 46.976C144.086 46.9401 143.399 47.1637 142.855 47.6037C142.678 47.769 142.522 47.9547 142.39 48.1569C142.414 48.0983 142.443 48.0422 142.478 47.9896C142.515 47.9215 142.558 47.8576 142.608 47.7989C142.672 47.7133 142.745 47.6353 142.827 47.5665C143.37 47.0974 144.072 46.853 144.789 46.883C145.302 46.8845 145.811 46.9725 146.295 47.1434C146.86 47.3562 147.404 47.6224 147.918 47.9384C148.471 48.2778 149.048 48.6637 149.694 48.9985C150.376 49.3509 151.116 49.5747 151.879 49.6587C153.497 49.84 155.255 49.4355 157.152 49.1566C159.189 48.9037 161.251 48.9177 163.284 49.1984C165.432 49.4541 167.669 49.7703 169.998 50.0678L177.2 50.9977L202.46 54.3824L210.113 55.4379L212.196 55.7354L212.735 55.8191C212.793 55.8376 212.849 55.8625 212.902 55.8935Z" fill="#4D5557"/>
<path d="M210.936 62.6583H210.763L210.257 62.6025L208.304 62.3793L201.139 61.5053L177.507 58.539L153.878 55.4983L146.723 54.5684L144.78 54.2941L144.273 54.2197C144.215 54.2134 144.157 54.2025 144.101 54.1872C144.159 54.1789 144.219 54.1789 144.278 54.1872L144.784 54.2383L146.732 54.4615L153.902 55.3355L177.539 58.3065L201.163 61.3472L208.318 62.2771L210.261 62.5467L210.768 62.6211C210.825 62.6258 210.882 62.6383 210.936 62.6583Z" fill="#4D5557"/>
<path d="M202.994 101.694H202.832L202.367 101.643L200.507 101.429L193.696 100.602L171.234 97.7843L148.759 94.897L141.957 93.9672L140.098 93.7115L139.633 93.6371L139.47 93.6045C139.524 93.5994 139.579 93.5994 139.633 93.6045L140.098 93.651L141.957 93.8649L148.769 94.6925L171.234 97.5146L193.691 100.407L200.493 101.309L202.353 101.569L202.818 101.639C202.879 101.647 202.939 101.666 202.994 101.694Z" fill="#4D5557"/>
<path d="M201.316 114.889H201.153L200.688 114.843L198.829 114.629L192.017 113.801L169.552 110.979L147.095 108.087L140.293 107.185L138.433 106.925L137.968 106.855L137.806 106.823C137.861 106.816 137.917 106.816 137.973 106.823L138.438 106.874L140.298 107.088L147.104 107.915L169.57 110.737L192.022 113.625L198.829 114.555L200.688 114.81L201.153 114.885C201.208 114.882 201.262 114.883 201.316 114.889Z" fill="#4D5557"/>
<path d="M200.851 107.994C200.797 107.999 200.742 107.999 200.688 107.994L200.223 107.948L198.41 107.739L191.738 106.93L169.742 104.168L147.755 101.336L141.093 100.448L139.284 100.197L138.819 100.128L138.661 100.095C138.715 100.088 138.77 100.088 138.824 100.095L139.289 100.146L141.107 100.351L147.774 101.16L169.77 103.917L191.757 106.753L198.415 107.636L200.223 107.887L200.688 107.962L200.851 107.994Z" fill="#4D5557"/>
<path d="M165.586 116.335C165.488 116.347 165.39 116.347 165.293 116.335L164.461 116.252L161.397 115.898L151.307 114.652L141.228 113.332L138.173 112.909L137.345 112.779C137.247 112.769 137.151 112.749 137.057 112.718C137.154 112.706 137.253 112.706 137.35 112.718L138.187 112.802L141.246 113.15L151.321 114.424L161.401 115.722L164.456 116.149L165.283 116.275C165.386 116.282 165.488 116.303 165.586 116.335Z" fill="#4D5557"/>
<path d="M152.651 61.1566C152.651 61.2217 150.247 60.9706 147.304 60.5987C144.361 60.2267 141.985 59.8641 141.995 59.799C142.004 59.7339 144.394 59.9803 147.337 60.3569C150.28 60.7335 152.656 61.0868 152.651 61.1566Z" fill="#4D5557"/>
<path d="M203.915 94.4693C203.861 94.4765 203.806 94.4765 203.752 94.4693L203.287 94.4228C202.878 94.3763 202.274 94.3112 201.497 94.2461C200.721 94.181 199.763 94.1066 198.657 94.0416C197.55 93.9765 196.285 93.9114 194.886 93.8509C192.096 93.7254 188.763 93.6417 185.071 93.4232C183.211 93.3116 181.287 93.1721 179.283 92.9118C177.279 92.6514 175.233 92.312 173.122 91.9819L151.512 88.6762L144.966 87.644L143.19 87.3511L142.725 87.2674C142.672 87.2627 142.62 87.2501 142.571 87.2302H142.729L143.194 87.2907L144.98 87.5371L151.531 88.4949L173.15 91.7494C175.261 92.0609 177.335 92.391 179.311 92.6793C181.287 92.9675 183.235 93.0838 185.08 93.2C188.767 93.4278 192.096 93.5348 194.891 93.665C196.285 93.7393 197.55 93.8091 198.661 93.8928C199.772 93.9765 200.721 94.0555 201.502 94.1392C202.283 94.2229 202.897 94.2973 203.292 94.3624L203.757 94.4321C203.81 94.4413 203.863 94.4537 203.915 94.4693Z" fill="#4D5557"/>
<path d="M85.1517 134.156C85.1517 134.156 142.046 77.8989 148.518 68.9861L144.622 65.4061L80.4604 129.214L85.1517 134.156Z" fill="#E0E0E0"/>
<path d="M67.8142 146.04C70.376 146.087 77.2942 145.11 87.0347 135.049L95.6313 127.294L89.0571 120.934C89.0571 120.934 102.164 108.789 101.541 108.124C100.918 107.46 93.9436 113.959 88.4388 118.706C83.4314 123.044 66.7169 138.331 66.3264 144.399C66.3112 144.605 66.3381 144.813 66.4056 145.009C66.473 145.205 66.5795 145.385 66.7186 145.538C66.8577 145.692 67.0266 145.815 67.2149 145.902C67.4032 145.988 67.6071 146.035 67.8142 146.04Z" fill="#BAD7FF"/>
<path opacity="0.2" d="M101.541 108.138C100.913 107.474 93.9436 113.941 88.4387 118.706C88.0064 119.083 87.4763 119.543 86.8859 120.073L93.4182 126.331L84.8355 134.105C76.0017 143.246 69.4926 144.915 66.4612 145.115C66.5745 145.383 66.7621 145.613 67.0019 145.777C67.2416 145.942 67.5234 146.035 67.8141 146.045C70.3759 146.091 77.2942 145.115 87.0346 135.054L95.6313 127.299L89.0571 120.934C89.0571 120.934 102.164 108.803 101.541 108.138Z" fill="#677274"/>
<path d="M96.5425 119.371L141.386 74.3003L139.489 72.5522L94.72 117.446L96.5425 119.371Z" fill="#838E91"/>
<path d="M148.485 69.0466C148.485 69.0466 152.74 62.3468 151.549 61.9935C150.359 61.6401 144.631 65.4061 144.631 65.4061L145.728 66.5359L139.219 72.8032L141.409 74.3003L147.332 68.0469L148.485 69.0466Z" fill="#838E91"/>
</svg>
