<svg width="24" height="24" viewBox="0 0 24 24" fill="none" xmlns="http://www.w3.org/2000/svg">
<path d="M20.0004 5.74999C20.0004 5.25259 19.9358 5.02119 19.7075 4.79289C19.317 4.40229 18.6838 4.40229 18.2933 4.79289L17.1888 5.89739C15.5505 4.50269 13.3438 3.75699 10.9624 4.06049C7.37265 4.51809 4.47285 7.46529 4.06645 11.0612C3.52005 15.8966 7.28845 19.9933 12.0137 19.9933C14.7348 19.9933 17.1356 18.6333 18.5797 16.5569C19.0373 15.8989 18.5485 14.9933 17.7469 14.9933C17.4072 14.9933 17.1036 15.1746 16.9073 15.4518C15.65 17.2274 13.4577 18.2953 11.0498 17.9175C8.44555 17.5089 6.36645 15.3386 6.05685 12.7207C5.62725 9.08869 8.46585 5.99329 12.0138 5.99329C13.4341 5.99329 14.7351 6.49489 15.7625 7.32369L14.2934 8.79279C13.9028 9.18329 13.9214 9.79879 14.2934 10.207C14.5084 10.4429 14.6936 10.4999 14.9992 10.4999H19.0005C19.5528 10.4999 20.0005 10.0521 20.0005 9.49989L20.0004 5.74999Z" fill="#4D5557"/>
</svg>
